<?xml version="1.0" encoding="UTF-8" standalone="no"?>
<!DOCTYPE svg PUBLIC "-//W3C//DTD SVG 1.1//EN" "https://vectorizer.ai/">
<svg xmlns="https://vectorizer.ai/" version="1.1" viewBox="0 0 145 43">
<path fill="rgb(40,50,62)" fill-opacity="0.000" d="M 0.00 0.00 Q 9.66 0.00 19.31 0.00 Q 16.65 -0.08 17.75 1.75 Q 22.29 9.35 14.48 12.09 A 0.83 0.79 84.9 0 0 13.95 12.75 Q 13.65 15.15 11.92 16.25 Q 10.23 17.33 8.05 16.30 Q 4.35 14.54 4.11 10.48 Q 3.95 7.85 5.22 5.72 Q 6.51 3.55 8.98 2.22 A 1.57 1.57 57.4 0 1 10.97 2.66 Q 13.07 5.43 14.58 7.43 Q 15.44 8.57 16.06 7.63 A 2.03 2.02 -44.4 0 0 16.09 5.44 Q 12.24 -0.71 7.14 1.08 Q 4.84 1.89 3.23 3.95 Q 1.48 6.19 1.50 8.75 Q 1.54 15.20 7.88 18.43 Q 11.25 20.15 14.19 18.69 Q 17.31 17.13 19.91 13.35 A 1.64 1.40 65.4 0 0 20.17 12.44 Q 20.09 6.55 24.27 2.55 Q 24.44 2.40 25.41 1.66 Q 27.25 0.27 24.06 0.00 Q 84.53 0.00 145.00 0.00 Q 145.00 21.50 145.00 43.00 Q 84.22 43.00 23.44 43.00 Q 25.27 43.22 25.64 42.44 Q 25.89 41.92 25.16 40.84 Q 23.47 38.33 23.81 35.81 Q 24.37 31.62 28.75 31.05 A 0.63 0.62 -0.1 0 0 29.30 30.51 Q 29.79 26.37 33.26 26.31 Q 35.01 26.29 36.44 27.48 Q 37.86 28.67 38.59 30.34 Q 39.58 32.61 38.85 35.24 Q 37.76 39.19 33.82 41.12 A 1.21 1.16 58.6 0 1 32.34 40.73 L 28.62 35.59 A 1.10 0.98 71.5 0 0 27.82 35.13 Q 26.24 35.06 27.00 37.00 Q 29.88 44.35 35.97 41.91 Q 39.11 40.65 40.62 38.03 Q 42.36 35.02 41.25 31.50 Q 39.78 26.85 35.32 24.71 Q 32.50 23.36 30.04 24.18 Q 27.62 24.98 25.31 27.31 Q 23.25 29.39 22.98 31.55 Q 22.63 34.38 22.63 34.39 Q 21.27 38.76 18.19 41.19 Q 15.90 42.99 19.44 43.00 Q 9.72 43.00 0.00 43.00 Q 0.00 33.84 0.00 24.69 Q 0.59 26.17 1.65 25.43 Q 2.67 24.71 2.86 24.63 Q 9.98 21.53 12.12 28.77 A 0.79 0.78 86.3 0 0 12.74 29.32 Q 17.15 30.01 16.69 33.51 Q 16.37 35.91 13.92 37.50 Q 7.56 41.64 2.47 34.45 Q 1.42 32.98 2.97 31.80 L 7.56 28.27 A 1.11 0.90 -23.6 0 0 7.99 27.44 Q 7.96 26.66 7.00 26.75 Q 3.93 27.03 1.97 29.71 Q -1.14 33.97 2.18 38.06 Q 4.55 40.99 7.89 41.39 Q 10.89 41.74 13.87 40.00 Q 16.63 38.39 18.14 35.55 Q 19.63 32.77 18.81 29.77 Q 17.74 25.89 14.23 23.74 Q 13.06 23.03 10.02 22.61 Q 5.00 21.92 1.77 17.75 Q 1.33 17.19 1.00 17.01 Q -0.06 16.44 0.31 18.49 Q 0.44 19.21 0.00 19.44 Q 0.00 9.72 0.00 0.00 Z M 28.69 18.81 Q 30.18 19.89 31.61 20.05 Q 34.33 20.37 34.33 20.37 Q 38.59 21.75 41.64 25.27 Q 43.02 26.88 43.00 24.77 L 42.94 17.80 Q 42.93 16.37 41.82 17.30 Q 37.90 20.62 33.31 18.19 Q 31.50 17.23 31.12 14.43 A 0.68 0.68 1.2 0 0 30.57 13.86 Q 26.23 13.05 26.45 9.71 Q 26.61 7.38 28.92 5.67 Q 34.95 1.20 40.68 8.39 A 1.71 1.69 51.9 0 1 40.40 10.79 L 35.55 14.57 Q 34.43 15.45 35.76 15.93 Q 36.86 16.33 37.91 15.82 Q 38.37 15.59 39.61 14.70 Q 42.01 12.97 42.47 10.25 Q 42.88 7.80 41.38 5.52 Q 40.09 3.56 38.04 2.40 Q 36.17 1.34 33.76 1.56 Q 27.46 2.16 24.87 7.56 Q 23.34 10.75 24.48 13.67 Q 25.63 16.61 28.69 18.81 Z M 10.09 12.02 Q 11.73 12.74 11.25 11.01 Q 10.70 9.00 9.18 7.29 Q 8.47 6.49 8.17 7.51 Q 7.20 10.74 10.09 12.02 Z M 31.18 9.70 A 0.87 0.87 -74.5 0 0 31.92 11.01 Q 34.01 11.03 35.78 9.08 A 0.55 0.55 -59.4 0 0 35.55 8.18 Q 32.63 7.21 31.18 9.70 Z M 26.4042 21.6256 A 0.26 0.26 0 0 0 26.4042 21.2579 L 21.8221 16.6758 A 0.26 0.26 0 0 0 21.4544 16.6758 L 16.8158 21.3144 A 0.26 0.26 0 0 0 16.8158 21.6821 L 21.3979 26.2642 A 0.26 0.26 0 0 0 21.7656 26.2642 L 26.4042 21.6256 Z M 67.08 40.80 Q 67.69 42.39 69.75 42.50 Q 72.66 42.65 74.63 41.26 Q 76.32 40.06 77.32 37.39 Q 79.21 32.33 76.56 27.69 Q 72.90 21.27 64.74 21.83 Q 58.27 22.28 54.28 27.29 Q 49.08 33.84 51.89 41.71 A 0.95 0.60 76.9 0 0 52.54 42.35 L 55.07 42.46 A 0.41 0.36 79.2 0 0 55.40 41.91 Q 52.28 33.80 57.10 28.31 Q 59.43 25.67 62.65 24.78 Q 66.19 23.80 69.56 25.19 Q 75.35 27.58 74.94 34.51 Q 74.75 37.81 72.60 39.39 Q 69.75 41.47 70.19 38.08 L 71.06 31.33 Q 71.39 28.81 69.08 28.60 Q 59.35 27.71 57.60 35.49 Q 56.91 38.59 58.26 40.83 Q 60.34 44.27 64.89 41.57 Q 65.22 41.38 65.52 40.86 Q 65.87 40.25 66.44 40.23 A 0.86 0.57 75.2 0 1 67.08 40.80 Z M 92.56 39.47 L 85.06 39.25 A 1.14 0.94 69.2 0 1 84.25 38.79 Q 82.20 36.01 84.04 32.98 A 1.13 0.79 -70.5 0 1 84.79 32.44 L 90.18 32.12 A 0.95 0.56 4.6 0 0 90.93 31.76 Q 91.60 30.38 90.75 29.19 A 0.91 0.76 -19.0 0 0 89.94 28.88 Q 87.63 29.17 86.50 29.00 Q 83.25 28.50 81.33 30.35 Q 79.81 31.83 79.54 34.53 Q 79.30 36.88 80.05 39.23 Q 81.09 42.44 84.50 42.54 Q 88.50 42.65 92.50 42.74 A 0.96 0.85 14.9 0 0 93.30 42.34 Q 94.14 41.03 93.36 39.83 A 1.08 0.70 -8.7 0 0 92.56 39.47 Z M 100.80 32.16 Q 105.03 32.93 104.30 29.31 A 0.63 0.62 84.8 0 0 103.70 28.80 L 93.24 28.75 A 0.69 0.68 -80.1 0 0 92.58 29.22 Q 91.37 32.82 95.30 31.99 A 1.00 0.99 83.9 0 1 96.50 32.97 L 96.50 41.59 A 0.67 0.67 5.8 0 0 97.04 42.25 Q 98.81 42.61 99.73 42.38 A 0.74 0.61 84.0 0 0 100.19 41.69 L 100.31 32.57 A 0.42 0.42 -84.8 0 1 100.80 32.16 Z M 116.78 37.35 Q 119.52 33.94 117.44 30.24 A 1.54 1.47 -1.3 0 0 116.73 29.59 Q 114.29 28.49 111.59 28.61 Q 111.38 28.62 108.92 28.60 Q 106.96 28.58 106.09 29.99 Q 105.48 30.99 105.65 33.61 Q 105.92 37.57 105.67 41.75 A 0.90 0.84 -1.0 0 0 106.65 42.63 L 108.93 42.44 A 0.51 0.46 88.2 0 0 109.36 41.93 L 109.36 38.93 A 0.59 0.55 -1.1 0 1 109.93 38.38 L 114.80 38.24 A 2.83 2.24 14.2 0 0 116.78 37.35 Z M 130.13 38.97 Q 128.68 35.23 126.90 31.08 Q 125.38 27.51 122.24 29.30 A 1.61 1.41 90.0 0 0 121.61 30.02 L 116.45 41.80 A 0.45 0.45 21.5 0 0 116.72 42.42 Q 120.39 43.67 121.33 40.17 A 0.82 0.75 -87.1 0 1 121.93 39.58 Q 124.17 39.16 126.34 39.79 A 0.81 0.73 -87.7 0 1 126.87 40.43 Q 127.32 43.14 130.26 42.61 Q 130.73 42.52 131.22 42.68 Q 133.20 43.33 133.94 41.48 Q 135.32 37.98 136.75 34.50 Q 137.35 33.05 137.93 34.55 L 140.85 41.99 A 1.06 0.95 85.5 0 0 141.52 42.63 Q 142.00 42.77 142.52 42.66 Q 143.06 42.54 143.48 42.67 Q 145.43 43.28 144.44 41.31 Q 144.33 41.11 140.25 31.20 Q 139.60 29.63 138.82 29.12 Q 137.62 28.33 136.03 28.87 A 1.27 1.19 1.0 0 0 135.32 29.51 L 131.18 38.95 Q 130.62 40.23 130.13 38.97 Z M 33.30 30.93 Q 32.09 30.13 32.06 31.59 Q 32.00 34.20 34.27 35.68 A 0.41 0.41 26.8 0 0 34.88 35.48 Q 35.96 32.67 33.30 30.93 Z M 11.12 31.90 Q 8.81 31.76 7.27 34.07 A 0.43 0.43 -61.7 0 0 7.46 34.71 Q 9.86 35.69 11.82 33.81 Q 13.64 32.05 11.12 31.90 Z"/>
<path fill="rgb(1,94,164)" fill-opacity="1.000" d="M 19.31 0.00 Q 21.69 0.00 24.06 0.00 Q 27.25 0.27 25.41 1.66 Q 24.44 2.40 24.27 2.55 Q 20.09 6.55 20.17 12.44 A 1.64 1.40 65.4 0 1 19.91 13.35 Q 17.31 17.13 14.19 18.69 Q 11.25 20.15 7.88 18.43 Q 1.54 15.20 1.50 8.75 Q 1.48 6.19 3.23 3.95 Q 4.84 1.89 7.14 1.08 Q 12.24 -0.71 16.09 5.44 A 2.03 2.02 -44.4 0 1 16.06 7.63 Q 15.44 8.57 14.58 7.43 Q 13.07 5.43 10.97 2.66 A 1.57 1.57 57.4 0 0 8.98 2.22 Q 6.51 3.55 5.22 5.72 Q 3.95 7.85 4.11 10.48 Q 4.35 14.54 8.05 16.30 Q 10.23 17.33 11.92 16.25 Q 13.65 15.15 13.95 12.75 A 0.83 0.79 84.9 0 1 14.48 12.09 Q 22.29 9.35 17.75 1.75 Q 16.65 -0.08 19.31 0.00 Z"/>
<path fill="rgb(192,1,0)" fill-opacity="1.000" d="M 38.04 2.40 Q 40.09 3.56 41.38 5.52 Q 42.88 7.80 42.47 10.25 Q 42.01 12.97 39.61 14.70 Q 38.37 15.59 37.91 15.82 Q 36.86 16.33 35.76 15.93 Q 34.43 15.45 35.55 14.57 L 40.40 10.79 A 1.71 1.69 51.9 0 0 40.68 8.39 Q 34.95 1.20 28.92 5.67 Q 26.61 7.38 26.45 9.71 Q 26.23 13.05 30.57 13.86 A 0.68 0.68 1.2 0 1 31.12 14.43 Q 31.50 17.23 33.31 18.19 Q 37.90 20.62 41.82 17.30 Q 42.93 16.37 42.94 17.80 L 43.00 24.77 Q 43.02 26.88 41.64 25.27 Q 38.59 21.75 34.33 20.37 Q 34.33 20.37 31.61 20.05 Q 30.18 19.89 28.69 18.81 Q 25.63 16.61 24.48 13.67 Q 23.34 10.75 24.87 7.56 Q 27.46 2.16 33.76 1.56 Q 36.17 1.34 38.04 2.40 Z"/>
<path fill="rgb(1,94,164)" fill-opacity="1.000" d="M 9.18 7.29 Q 10.70 9.00 11.25 11.01 Q 11.73 12.74 10.09 12.02 Q 7.20 10.74 8.17 7.51 Q 8.47 6.49 9.18 7.29 Z"/>
<path fill="rgb(192,1,0)" fill-opacity="1.000" d="M 35.55 8.18 A 0.55 0.55 -59.4 0 1 35.78 9.08 Q 34.01 11.03 31.92 11.01 A 0.87 0.87 -74.5 0 1 31.18 9.70 Q 32.63 7.21 35.55 8.18 Z"/>
<rect fill="rgb(1,94,164)" fill-opacity="1.000" x="-3.50" y="-3.54" width="7.00" height="7.08" rx="0.26" transform="translate(21.61,21.47) rotate(45.0)"/>
<path fill="rgb(192,1,0)" fill-opacity="1.000" d="M 1.77 17.75 Q 5.00 21.92 10.02 22.61 Q 13.06 23.03 14.23 23.74 Q 17.74 25.89 18.81 29.77 Q 19.63 32.77 18.14 35.55 Q 16.63 38.39 13.87 40.00 Q 10.89 41.74 7.89 41.39 Q 4.55 40.99 2.18 38.06 Q -1.14 33.97 1.97 29.71 Q 3.93 27.03 7.00 26.75 Q 7.96 26.66 7.99 27.44 A 1.11 0.90 -23.6 0 1 7.56 28.27 L 2.97 31.80 Q 1.42 32.98 2.47 34.45 Q 7.56 41.64 13.92 37.50 Q 16.37 35.91 16.69 33.51 Q 17.15 30.01 12.74 29.32 A 0.79 0.78 86.3 0 1 12.12 28.77 Q 9.98 21.53 2.86 24.63 Q 2.67 24.71 1.65 25.43 Q 0.59 26.17 0.00 24.69 Q 0.00 22.06 0.00 19.44 Q 0.44 19.21 0.31 18.49 Q -0.06 16.44 1.00 17.01 Q 1.33 17.19 1.77 17.75 Z"/>
<path fill="rgb(1,94,164)" fill-opacity="1.000" d="M 64.74 21.83 Q 72.90 21.27 76.56 27.69 Q 79.21 32.33 77.32 37.39 Q 76.32 40.06 74.63 41.26 Q 72.66 42.65 69.75 42.50 Q 67.69 42.39 67.08 40.80 A 0.86 0.57 75.2 0 0 66.44 40.23 Q 65.87 40.25 65.52 40.86 Q 65.22 41.38 64.89 41.57 Q 60.34 44.27 58.26 40.83 Q 56.91 38.59 57.60 35.49 Q 59.35 27.71 69.08 28.60 Q 71.39 28.81 71.06 31.33 L 70.19 38.08 Q 69.75 41.47 72.60 39.39 Q 74.75 37.81 74.94 34.51 Q 75.35 27.58 69.56 25.19 Q 66.19 23.80 62.65 24.78 Q 59.43 25.67 57.10 28.31 Q 52.28 33.80 55.40 41.91 A 0.41 0.36 79.2 0 1 55.07 42.46 L 52.54 42.35 A 0.95 0.60 76.9 0 1 51.89 41.71 Q 49.08 33.84 54.28 27.29 Q 58.27 22.28 64.74 21.83 Z M 62.72 38.84 Q 65.22 40.01 65.62 37.61 L 66.47 32.57 A 0.52 0.45 3.2 0 0 65.94 32.05 Q 63.28 32.07 62.33 34.40 Q 61.84 35.59 61.66 36.58 Q 61.35 38.20 62.72 38.84 Z"/>
<path fill="rgb(1,94,164)" fill-opacity="1.000" d="M 35.32 24.71 Q 39.78 26.85 41.25 31.50 Q 42.36 35.02 40.62 38.03 Q 39.11 40.65 35.97 41.91 Q 29.88 44.35 27.00 37.00 Q 26.24 35.06 27.82 35.13 A 1.10 0.98 71.5 0 1 28.62 35.59 L 32.34 40.73 A 1.21 1.16 58.6 0 0 33.82 41.12 Q 37.76 39.19 38.85 35.24 Q 39.58 32.61 38.59 30.34 Q 37.86 28.67 36.44 27.48 Q 35.01 26.29 33.26 26.31 Q 29.79 26.37 29.30 30.51 A 0.63 0.62 -0.1 0 1 28.75 31.05 Q 24.37 31.62 23.81 35.81 Q 23.47 38.33 25.16 40.84 Q 25.89 41.92 25.64 42.44 Q 25.27 43.22 23.44 43.00 Q 21.44 43.00 19.44 43.00 Q 15.90 42.99 18.19 41.19 Q 21.27 38.76 22.63 34.39 Q 22.63 34.38 22.98 31.55 Q 23.25 29.39 25.31 27.31 Q 27.62 24.98 30.04 24.18 Q 32.50 23.36 35.32 24.71 Z"/>
<path fill="rgb(1,94,164)" fill-opacity="1.000" d="M 90.75 29.19 Q 91.60 30.38 90.93 31.76 A 0.95 0.56 4.6 0 1 90.18 32.12 L 84.79 32.44 A 1.13 0.79 -70.5 0 0 84.04 32.98 Q 82.20 36.01 84.25 38.79 A 1.14 0.94 69.2 0 0 85.06 39.25 L 92.56 39.47 A 1.08 0.70 -8.7 0 1 93.36 39.83 Q 94.14 41.03 93.30 42.34 A 0.96 0.85 14.9 0 1 92.50 42.74 Q 88.50 42.65 84.50 42.54 Q 81.09 42.44 80.05 39.23 Q 79.30 36.88 79.54 34.53 Q 79.81 31.83 81.33 30.35 Q 83.25 28.50 86.50 29.00 Q 87.63 29.17 89.94 28.88 A 0.91 0.76 -19.0 0 1 90.75 29.19 Z"/>
<path fill="rgb(1,94,164)" fill-opacity="1.000" d="M 93.24 28.75 L 103.70 28.80 A 0.63 0.62 84.8 0 1 104.30 29.31 Q 105.03 32.93 100.80 32.16 A 0.42 0.42 -84.8 0 0 100.31 32.57 L 100.19 41.69 A 0.74 0.61 84.0 0 1 99.73 42.38 Q 98.81 42.61 97.04 42.25 A 0.67 0.67 5.8 0 1 96.50 41.59 L 96.50 32.97 A 1.00 0.99 83.9 0 0 95.30 31.99 Q 91.37 32.82 92.58 29.22 A 0.69 0.68 -80.1 0 1 93.24 28.75 Z"/>
<path fill="rgb(1,94,164)" fill-opacity="1.000" d="M 111.59 28.61 Q 114.29 28.49 116.73 29.59 A 1.54 1.47 -1.3 0 1 117.44 30.24 Q 119.52 33.94 116.78 37.35 A 2.83 2.24 14.2 0 1 114.80 38.24 L 109.93 38.38 A 0.59 0.55 -1.1 0 0 109.36 38.93 L 109.36 41.93 A 0.51 0.46 88.2 0 1 108.93 42.44 L 106.65 42.63 A 0.90 0.84 -1.0 0 1 105.67 41.75 Q 105.92 37.57 105.65 33.61 Q 105.48 30.99 106.09 29.99 Q 106.96 28.58 108.92 28.60 Q 111.38 28.62 111.59 28.61 Z M 114.2392 32.9226 A 0.83 0.83 0 0 0 113.4372 32.0655 L 110.1390 31.9561 A 0.83 0.83 0 0 0 109.2819 32.7581 L 109.2408 33.9974 A 0.83 0.83 0 0 0 110.0428 34.8545 L 113.3410 34.9639 A 0.83 0.83 0 0 0 114.1981 34.1619 L 114.2392 32.9226 Z"/>
<path fill="rgb(1,94,164)" fill-opacity="1.000" d="M 126.90 31.08 Q 128.68 35.23 130.13 38.97 Q 130.62 40.23 131.18 38.95 L 135.32 29.51 A 1.27 1.19 1.0 0 1 136.03 28.87 Q 137.62 28.33 138.82 29.12 Q 139.60 29.63 140.25 31.20 Q 144.33 41.11 144.44 41.31 Q 145.43 43.28 143.48 42.67 Q 143.06 42.54 142.52 42.66 Q 142.00 42.77 141.52 42.63 A 1.06 0.95 85.5 0 1 140.85 41.99 L 137.93 34.55 Q 137.35 33.05 136.75 34.50 Q 135.32 37.98 133.94 41.48 Q 133.20 43.33 131.22 42.68 Q 130.73 42.52 130.26 42.61 Q 127.32 43.14 126.87 40.43 A 0.81 0.73 -87.7 0 0 126.34 39.79 Q 124.17 39.16 121.93 39.58 A 0.82 0.75 -87.1 0 0 121.33 40.17 Q 120.39 43.67 116.72 42.42 A 0.45 0.45 21.5 0 1 116.45 41.80 L 121.61 30.02 A 1.61 1.41 90.0 0 1 122.24 29.30 Q 125.38 27.51 126.90 31.08 Z M 123.05 35.17 Q 122.66 36.85 124.28 36.41 A 0.83 0.78 86.9 0 0 124.84 35.75 Q 125.14 33.69 123.62 34.44 A 1.11 1.05 84.6 0 0 123.05 35.17 Z"/>
<path fill="rgb(1,94,164)" fill-opacity="1.000" d="M 33.30 30.93 Q 35.96 32.67 34.88 35.48 A 0.41 0.41 26.8 0 1 34.27 35.68 Q 32.00 34.20 32.06 31.59 Q 32.09 30.13 33.30 30.93 Z"/>
<path fill="rgb(192,1,0)" fill-opacity="1.000" d="M 11.12 31.90 Q 13.64 32.05 11.82 33.81 Q 9.86 35.69 7.46 34.71 A 0.43 0.43 -61.7 0 1 7.27 34.07 Q 8.81 31.76 11.12 31.90 Z"/>
<path fill="rgb(40,50,62)" fill-opacity="0.000" d="M 66.47 32.57 L 65.62 37.61 Q 65.22 40.01 62.72 38.84 Q 61.35 38.20 61.66 36.58 Q 61.84 35.59 62.33 34.40 Q 63.28 32.07 65.94 32.05 A 0.52 0.45 3.2 0 1 66.47 32.57 Z"/>
<rect fill="rgb(40,50,62)" fill-opacity="0.000" x="-2.48" y="-1.45" width="4.96" height="2.90" rx="0.83" transform="translate(111.74,33.46) rotate(1.9)"/>
<path fill="rgb(40,50,62)" fill-opacity="0.000" d="M 124.28 36.41 Q 122.66 36.85 123.05 35.17 A 1.11 1.05 84.6 0 1 123.62 34.44 Q 125.14 33.69 124.84 35.75 A 0.83 0.78 86.9 0 1 124.28 36.41 Z"/>
</svg>
