<?xml version="1.0" encoding="UTF-8"?>
<!DOCTYPE svg PUBLIC "-//W3C//DTD SVG 1.1//EN" "http://www.w3.org/Graphics/SVG/1.1/DTD/svg11.dtd">
<svg xmlns="http://www.w3.org/2000/svg" version="1.1" width="121px" height="52px" style="shape-rendering:geometricPrecision; text-rendering:geometricPrecision; image-rendering:optimizeQuality; fill-rule:evenodd; clip-rule:evenodd" xmlns:xlink="http://www.w3.org/1999/xlink">
<g><path style="opacity:0.004" fill="#fefffe" d="M 8.5,7.5 C 8.5,8.83333 7.83333,9.5 6.5,9.5C 6.83333,8.5 7.5,7.83333 8.5,7.5 Z"/></g>
<g><path style="opacity:0.785" fill="#c0262c" d="M 69.5,18.5 C 71.6243,20.0592 73.291,22.0592 74.5,24.5C 75.8333,22.5 77.1667,20.5 78.5,18.5C 79.8333,22.1667 79.8333,25.8333 78.5,29.5C 77.7189,28.2713 77.2189,26.938 77,25.5C 75.944,30.2135 74.2774,30.5469 72,26.5C 71.7508,27.624 71.2508,28.624 70.5,29.5C 69.5108,25.8927 69.1774,22.226 69.5,18.5 Z"/></g>
<g><path style="opacity:0.711" fill="#c0262c" d="M 82.5,21.5 C 88.0666,20.7532 89.9,23.0866 88,28.5C 85.7564,30.9938 83.4231,30.9938 81,28.5C 80.1668,25.829 80.6668,23.4957 82.5,21.5 Z M 83.5,23.5 C 85.9118,23.6941 86.9118,25.0274 86.5,27.5C 83.0136,27.7047 82.0136,26.3714 83.5,23.5 Z"/></g>
<g><path style="opacity:0.676" fill="#c0262c" d="M 97.5,21.5 C 98.7498,21.5774 99.5831,22.244 100,23.5C 103.183,21.4766 106.683,20.9766 110.5,22C 111.435,24.3806 111.768,26.8806 111.5,29.5C 108.15,29.665 104.817,29.4983 101.5,29C 100.324,27.0858 99.324,27.2524 98.5,29.5C 97.52,26.9135 97.1866,24.2469 97.5,21.5 Z M 103.5,22.5 C 104.622,24.2884 104.789,26.2884 104,28.5C 102.311,26.6804 102.145,24.6804 103.5,22.5 Z"/></g>
<g><path style="opacity:0.707" fill="#c0262c" d="M 113.5,21.5 C 115.467,21.2606 117.301,21.5939 119,22.5C 119.497,24.8098 119.663,27.1432 119.5,29.5C 117.248,30.3331 115.081,30.3331 113,29.5C 113.169,26.66 113.335,23.9933 113.5,21.5 Z M 114.5,26.5 C 117.001,26.5109 117.168,27.1776 115,28.5C 114.536,27.9056 114.369,27.2389 114.5,26.5 Z"/></g>
<g><path style="opacity:0.699" fill="#c0262c" d="M 90.5,21.5 C 92.9775,21.0508 94.9775,21.7175 96.5,23.5C 95.2839,24.0959 93.9506,24.2626 92.5,24C 91.6634,25.0113 91.33,26.1779 91.5,27.5C 92.9305,27.5792 94.2638,27.2458 95.5,26.5C 96.6069,28.7686 95.7735,30.1019 93,30.5C 89.4166,28.3916 88.5833,25.3916 90.5,21.5 Z"/></g>
<g><path style="opacity:0.008" fill="#727272" d="M 49.5,21.5 C 50.0965,23.398 50.0965,25.0646 49.5,26.5C 48.645,25.4693 47.9783,24.3026 47.5,23C 47.8361,21.9701 48.5028,21.4701 49.5,21.5 Z"/></g>
<g><path style="opacity:0.004" fill="#fefffe" d="M 49.5,28.5 C 50.5063,29.3957 50.5063,30.0623 49.5,30.5C 48.1667,29.8333 48.1667,29.1667 49.5,28.5 Z"/></g>
<g><path style="opacity:0.023" fill="#1e1e1e" d="M 49.5,21.5 C 48.5028,21.4701 47.8361,21.9701 47.5,23C 47.9783,24.3026 48.645,25.4693 49.5,26.5C 50.5063,27.3957 50.5063,28.0623 49.5,28.5C 48.1667,29.1667 48.1667,29.8333 49.5,30.5C 48.2086,31.4728 48.2086,32.4728 49.5,33.5C 47.3206,35.8399 45.9873,38.5066 45.5,41.5C 45.1667,40.1667 44.8333,40.1667 44.5,41.5C 43.8333,42.5 43.1667,43.5 42.5,44.5C 42.1667,43.1667 41.8333,43.1667 41.5,44.5C 39.3454,45.2688 37.3454,46.4355 35.5,48C 30.9352,49.7781 26.4352,50.6114 22,50.5C 20.9822,48.4356 19.6489,48.1023 18,49.5C 12.4706,46.5257 7.80393,43.1923 4,39.5C 3.71331,36.0038 2.54665,32.5038 0.5,29C 1.44669,26.5215 1.44669,24.1882 0.5,22C 1.76326,20.2949 2.09659,18.6282 1.5,17C 2.28859,14.2915 3.95525,11.7915 6.5,9.5C 7.83333,9.5 8.5,8.83333 8.5,7.5C 11.4726,5.39416 14.6393,3.39416 18,1.5C 18.3826,2.05596 18.8826,2.38929 19.5,2.5C 19.811,1.52216 20.4777,0.855491 21.5,0.5C 27.3254,0.339964 33.3254,1.6733 39.5,4.5C 43.0818,7.49412 46.0818,10.9941 48.5,15C 48.1667,15.3333 47.8333,15.6667 47.5,16C 49.3634,17.7613 50.03,19.5946 49.5,21.5 Z"/></g>
<g><path style="opacity:0.992" fill="#fcfbfb" d="M 19.5,2.5 C 29.6647,1.78724 37.498,5.12058 43,12.5C 49.0084,26.4833 45.1751,36.65 31.5,43C 19.123,45.729 10.623,41.229 6,29.5C 4.07625,21.4258 5.90958,14.4258 11.5,8.5C 14.3128,6.45567 16.9794,4.45567 19.5,2.5 Z"/></g>
<g><path style="opacity:1" fill="#c43235" d="M 22.5,15.5 C 30.3296,14.4949 33.4963,17.8283 32,25.5C 25.6517,33.6206 21.1517,32.4539 18.5,22C 18.7225,19.0379 20.0558,16.8712 22.5,15.5 Z"/></g>
<g><path style="opacity:1" fill="#fbeeef" d="M 23.5,20.5 C 24.8333,20.5 26.1667,20.5 27.5,20.5C 27.5,21.8333 27.5,23.1667 27.5,24.5C 26.1667,24.5 24.8333,24.5 23.5,24.5C 23.5,23.1667 23.5,21.8333 23.5,20.5 Z"/></g>
<g><path style="opacity:0.004" fill="#fefffe" d="M 44.5,41.5 C 44.8333,41.5 45.1667,41.5 45.5,41.5C 45.3147,42.1701 44.9813,42.1701 44.5,41.5 Z"/></g>
<g><path style="opacity:0.004" fill="#fefffe" d="M 41.5,44.5 C 41.8333,44.5 42.1667,44.5 42.5,44.5C 42.3147,45.1701 41.9813,45.1701 41.5,44.5 Z"/></g>
</svg>
