<?xml version="1.0" encoding="UTF-8"?>
<!DOCTYPE svg PUBLIC "-//W3C//DTD SVG 1.1//EN" "http://www.w3.org/Graphics/SVG/1.1/DTD/svg11.dtd">
<svg xmlns="http://www.w3.org/2000/svg" version="1.1" width="52px" height="52px" style="shape-rendering:geometricPrecision; text-rendering:geometricPrecision; image-rendering:optimizeQuality; fill-rule:evenodd; clip-rule:evenodd" xmlns:xlink="http://www.w3.org/1999/xlink">
<g><path style="opacity:0.004" fill="#fefffe" d="M 8.5,7.5 C 8.5,8.83333 7.83333,9.5 6.5,9.5C 6.83333,8.5 7.5,7.83333 8.5,7.5 Z"/></g>
<g><path style="opacity:0.008" fill="#727272" d="M 49.5,21.5 C 50.0965,23.398 50.0965,25.0646 49.5,26.5C 48.645,25.4693 47.9783,24.3026 47.5,23C 47.8361,21.9701 48.5028,21.4701 49.5,21.5 Z"/></g>
<g><path style="opacity:0.004" fill="#fefffe" d="M 49.5,28.5 C 50.5063,29.3957 50.5063,30.0623 49.5,30.5C 48.1667,29.8333 48.1667,29.1667 49.5,28.5 Z"/></g>
<g><path style="opacity:0.023" fill="#1e1e1e" d="M 49.5,21.5 C 48.5028,21.4701 47.8361,21.9701 47.5,23C 47.9783,24.3026 48.645,25.4693 49.5,26.5C 50.5063,27.3957 50.5063,28.0623 49.5,28.5C 48.1667,29.1667 48.1667,29.8333 49.5,30.5C 48.2086,31.4728 48.2086,32.4728 49.5,33.5C 47.3206,35.8399 45.9873,38.5066 45.5,41.5C 45.1667,40.1667 44.8333,40.1667 44.5,41.5C 43.8333,42.5 43.1667,43.5 42.5,44.5C 42.1667,43.1667 41.8333,43.1667 41.5,44.5C 39.3454,45.2688 37.3454,46.4355 35.5,48C 30.9352,49.7781 26.4352,50.6114 22,50.5C 20.9822,48.4356 19.6489,48.1023 18,49.5C 12.4706,46.5257 7.80393,43.1923 4,39.5C 3.71331,36.0038 2.54665,32.5038 0.5,29C 1.44669,26.5215 1.44669,24.1882 0.5,22C 1.76326,20.2949 2.09659,18.6282 1.5,17C 2.28859,14.2915 3.95525,11.7915 6.5,9.5C 7.83333,9.5 8.5,8.83333 8.5,7.5C 11.4726,5.39416 14.6393,3.39416 18,1.5C 18.3826,2.05596 18.8826,2.38929 19.5,2.5C 19.811,1.52216 20.4777,0.855491 21.5,0.5C 27.3254,0.339964 33.3254,1.6733 39.5,4.5C 43.0818,7.49412 46.0818,10.9941 48.5,15C 48.1667,15.3333 47.8333,15.6667 47.5,16C 49.3634,17.7613 50.03,19.5946 49.5,21.5 Z"/></g>
<g><path style="opacity:0.992" fill="#fcfbfb" d="M 19.5,2.5 C 29.6647,1.78724 37.498,5.12058 43,12.5C 49.0084,26.4833 45.1751,36.65 31.5,43C 19.123,45.729 10.623,41.229 6,29.5C 4.07625,21.4258 5.90958,14.4258 11.5,8.5C 14.3128,6.45567 16.9794,4.45567 19.5,2.5 Z"/></g>
<g><path style="opacity:1" fill="#c84245" d="M 26.5,21.5 C 29.4947,19.9827 30.6614,20.9827 30,24.5C 29.5776,22.5743 28.4109,21.5743 26.5,21.5 Z"/></g>
<g><path style="opacity:1" fill="#cb494a" d="M 26.5,18.5 C 29.1024,17.0313 31.269,17.698 33,20.5C 33.6667,21.8333 33.6667,23.1667 33,24.5C 32.2723,20.9389 30.1057,18.9389 26.5,18.5 Z"/></g>
<g><path style="opacity:1" fill="#c33034" d="M 18.5,18.5 C 20.3904,18.2965 21.8904,18.9632 23,20.5C 23.0929,23.0075 23.9262,25.1741 25.5,27C 28.0075,27.0929 30.1741,27.9262 32,29.5C 32.6838,30.7839 32.5171,31.9505 31.5,33C 27.2656,33.4806 23.7656,31.9806 21,28.5C 20.3848,26.8839 19.3848,25.5505 18,24.5C 17.3224,22.4024 17.4891,20.4024 18.5,18.5 Z"/></g>
<g><path style="opacity:0.004" fill="#fefffe" d="M 44.5,41.5 C 44.8333,41.5 45.1667,41.5 45.5,41.5C 45.3147,42.1701 44.9813,42.1701 44.5,41.5 Z"/></g>
<g><path style="opacity:0.004" fill="#fefffe" d="M 41.5,44.5 C 41.8333,44.5 42.1667,44.5 42.5,44.5C 42.3147,45.1701 41.9813,45.1701 41.5,44.5 Z"/></g>
</svg>
